<svg viewBox="0 0 119 59" xmlns="http://www.w3.org/2000/svg">
    <g fill="#203347">
        <path d="M36.8131 28.3185C36.801 29.203 36.6582 30.0811 36.3892 30.925C36.0888 31.9065 35.5888 32.8176 34.9197 33.6027C34.2505 34.3878 33.4261 35.0306 32.4968 35.4919C31.4685 36.0233 30.2097 36.2889 28.7204 36.2889H3.36558C2.9068 36.2935 2.45171 36.2078 2.02696 36.0369C1.62785 35.8765 1.26553 35.6387 0.961488 35.3377C0.657447 35.0367 0.417885 34.6786 0.257018 34.2846C0.0823165 33.8665 -0.00519083 33.4181 -0.000293522 32.966V3.31577C-0.00338417 2.87285 0.0841266 2.43385 0.257018 2.02497C0.421558 1.6293 0.661357 1.26826 0.963508 0.961275C1.26557 0.656062 1.62804 0.415199 2.02845 0.253608C2.45309 0.0822399 2.90818 -0.0039328 3.36706 0.000137765H25.7145C26.6134 0.0122967 27.5054 0.157504 28.3605 0.430891C29.3178 0.725207 30.2111 1.19276 30.9946 1.8096C31.839 2.48162 32.529 3.3226 33.0188 4.27691C33.5582 5.28884 33.828 6.52884 33.828 7.99692V9.23057C33.81 10.5046 33.6097 11.7698 33.233 12.9887C32.8259 14.3565 32.1829 15.645 31.3322 16.7981C32.1051 17.2654 32.8208 17.819 33.465 18.4478C34.1408 19.1111 34.724 19.86 35.1993 20.6748C35.7181 21.5732 36.1151 22.5348 36.3802 23.5348C36.6824 24.6829 36.8294 25.8652 36.8175 27.0512L36.8131 28.3185ZM30.1334 27.0526C30.1461 26.2624 30.0068 25.4769 29.7229 24.7377C29.4649 24.0794 29.0714 23.4808 28.5672 22.9795C28.0572 22.4818 27.4452 22.0971 26.772 21.8514C26.0146 21.5814 25.2139 21.4488 24.4086 21.4602H9.35066V14.8289H21.3982C22.2035 14.8402 23.0042 14.7077 23.7616 14.4377C24.4353 14.1966 25.0475 13.8136 25.5554 13.3153C26.0633 12.817 26.4546 12.2155 26.7021 11.5528C26.9795 10.8096 27.1152 10.0223 27.1022 9.23057V7.99692C27.1022 7.05238 26.6396 6.58012 25.7145 6.58012H6.67641V29.7104H28.7204C28.8665 29.7089 29.0125 29.7001 29.1577 29.684C29.337 29.6731 29.5096 29.6122 29.6552 29.5085C29.8008 29.4047 29.9135 29.2624 29.9802 29.098C30.0931 28.8342 30.144 28.5487 30.1289 28.2628L30.1334 27.0526Z"/>
        <path d="M79.3814 28.3187C79.3694 29.2032 79.2266 30.0813 78.9575 30.9252C78.6572 31.9068 78.1572 32.8178 77.488 33.6029C76.8189 34.3881 75.9945 35.0308 75.0651 35.4921C74.0369 36.0235 72.7781 36.2892 71.2888 36.2892H45.9339C45.4752 36.2937 45.0201 36.208 44.5953 36.0371C44.1962 35.8767 43.8339 35.6389 43.5298 35.3379C43.2258 35.0369 42.9862 34.6788 42.8254 34.2848C42.6507 33.8667 42.5632 33.4183 42.5681 32.9662V3.31598C42.565 2.87306 42.6525 2.43407 42.8254 2.02519C42.9899 1.62951 43.2297 1.26847 43.5319 0.961489C43.8339 0.656276 44.1964 0.415413 44.5968 0.253822C45.0215 0.0824536 45.4765 -0.00371918 45.9354 0.000351388H68.2828C69.1818 0.0125103 70.0737 0.157717 70.9288 0.431105C71.8862 0.725421 72.7795 1.19298 73.5629 1.80981C74.409 2.48138 75.1005 3.32239 75.5917 4.27712C76.1311 5.28905 76.4008 6.52905 76.4008 7.99713V9.23079C76.3828 10.5048 76.1826 11.77 75.8059 12.9889C75.3987 14.3567 74.7557 15.6453 73.905 16.7983C74.673 17.2647 75.3841 17.8162 76.0245 18.4422C76.7003 19.1055 77.2835 19.8544 77.7587 20.6692C78.2775 21.5676 78.6746 22.5291 78.9397 23.5292C79.2419 24.6772 79.3889 25.8596 79.377 27.0455L79.3814 28.3187ZM72.7017 27.0529C72.7144 26.2626 72.5752 25.4771 72.2912 24.7379C72.0332 24.0796 71.6398 23.481 71.1356 22.9797C70.6246 22.4822 70.0115 22.098 69.3374 21.853C68.58 21.583 67.7793 21.4505 66.974 21.4618H51.919V14.8291H63.9666C64.7739 14.8412 65.5767 14.7086 66.3359 14.4379C67.0096 14.1968 67.6218 13.8138 68.1297 13.3155C68.6376 12.8172 69.0289 12.2157 69.2764 11.553C69.5518 10.8095 69.6854 10.0222 69.6705 9.23079V7.99713C69.6705 7.0526 69.208 6.58033 68.2828 6.58033H49.2448V29.7106H71.2888C71.4349 29.7091 71.5808 29.7003 71.726 29.6843C71.9054 29.6733 72.0779 29.6124 72.2235 29.5087C72.3692 29.4049 72.4819 29.2626 72.5486 29.0982C72.6615 28.8345 72.7123 28.5489 72.6973 28.2631L72.7017 27.0529Z"/>
        <path d="M88.5789 0.000366211H88.5774C86.7332 0.000366211 85.2383 1.47302 85.2383 3.28963V32.9999C85.2383 34.8165 86.7332 36.2892 88.5774 36.2892H88.5789C90.423 36.2892 91.918 34.8165 91.918 32.9999V3.28963C91.918 1.47302 90.423 0.000366211 88.5789 0.000366211Z"/>
        <path d="M14.7813 46.2493H8.76197V58.3998H6.02971V46.2493H0V43.5593H14.7813V46.2493Z"/>
        <path d="M30.403 58.3997H20.5493C20.1289 58.3929 19.7117 58.3268 19.3104 58.2034C18.8565 58.0694 18.4337 57.8494 18.0654 57.5558C17.6671 57.2352 17.3413 56.8359 17.1091 56.3837C16.8385 55.8369 16.7069 55.2335 16.7253 54.6255V44.9145C16.7238 44.7334 16.7598 44.554 16.8309 44.387C16.8974 44.2235 16.9954 44.0743 17.1195 43.9475C17.243 43.8216 17.3913 43.7219 17.5553 43.6545C17.7285 43.5848 17.9141 43.55 18.1011 43.5519H30.403V46.2419H19.4561V54.6152C19.4462 54.7617 19.4662 54.9086 19.515 55.0473C19.5638 55.186 19.6404 55.3136 19.7402 55.4225C19.8526 55.5213 19.9839 55.5969 20.1265 55.6447C20.2691 55.6925 20.4199 55.7116 20.5701 55.7009H30.403V58.3997ZM29.1744 52.3355H20.5478V49.6235H29.1744V52.3355Z"/>
        <path d="M48.1157 58.6063L40.9764 44.2933C40.8649 44.0731 40.6921 43.8886 40.4782 43.7614C40.2591 43.6272 40.0058 43.5571 39.7479 43.5593C39.4933 43.5578 39.2436 43.628 39.028 43.7614C38.8124 43.8902 38.6362 44.074 38.5178 44.2933L31.4009 58.6063H34.4589L39.7538 47.9107L45.0666 58.6063H48.1157Z"/>
        <path d="M63.2766 58.3997H53.4214C53.001 58.3929 52.5838 58.3268 52.1824 58.2034C51.7286 58.0694 51.3057 57.8494 50.9375 57.5558C50.5391 57.2351 50.2134 56.8359 49.9811 56.3837C49.7106 55.8369 49.5789 55.2335 49.5974 54.6255V44.9145C49.5966 44.7335 49.6325 44.5542 49.703 44.387C49.7701 44.2238 49.868 44.0747 49.9916 43.9475C50.115 43.8216 50.2633 43.7219 50.4274 43.6545C50.6011 43.5848 50.7871 43.55 50.9747 43.5519H63.2766V46.2419H52.3297V54.6152C52.3195 54.7616 52.3393 54.9084 52.3879 55.0471C52.4364 55.1858 52.5127 55.3134 52.6123 55.4225C52.7248 55.5211 52.8561 55.5965 52.9987 55.6443C53.1412 55.6921 53.292 55.7114 53.4422 55.7009H63.2766V58.3997ZM62.0465 52.3355H53.4199V49.6235H62.0465V52.3355Z"/>
        <path d="M68.6649 58.3998H65.9341V43.5593H68.6649V58.3998ZM81.703 58.3998H77.8269L71.6812 52.3355H69.7566V49.6235H71.6797L77.8255 43.5593H81.7015L73.9583 50.9788L81.703 58.3998Z"/>
        <path d="M98.76 52.3971C98.7692 53.2498 98.6085 54.096 98.287 54.8878C97.9904 55.6234 97.5443 56.2916 96.9763 56.8514C96.4083 57.4112 95.7302 57.8508 94.9836 58.1434C94.1847 58.4571 93.3314 58.6144 92.4715 58.6064H88.7739C87.9157 58.614 87.0641 58.4578 86.2663 58.1463C85.5186 57.8543 84.839 57.4156 84.2687 56.857C83.7014 56.2942 83.2534 55.6258 82.951 54.8907C82.6266 54.0996 82.4643 53.2531 82.4735 52.4V49.562C82.4647 48.7089 82.627 47.8624 82.951 47.0712C83.2495 46.335 83.6975 45.6667 84.2676 45.1071C84.8377 44.5475 85.5178 44.1086 86.2663 43.8171C87.0644 43.5025 87.9173 43.3447 88.7769 43.3527H92.4744C93.3326 43.3445 94.1841 43.5023 94.9806 43.8171C95.7241 44.1129 96.4005 44.5511 96.9707 45.1065C97.5395 45.6672 97.9863 46.3362 98.284 47.0727C98.6052 47.8646 98.7658 48.7108 98.757 49.5635L98.76 52.3971ZM96.0277 49.562C96.0351 49.0688 95.9478 48.5786 95.7704 48.1174C95.6109 47.7014 95.3628 47.324 95.0429 47.0104C94.723 46.6968 94.3387 46.4542 93.9157 46.2991C93.4547 46.1262 92.9647 46.0402 92.4715 46.0456H88.7739C88.2767 46.0397 87.7828 46.1257 87.3178 46.2991C86.8962 46.4589 86.5121 46.7017 86.1889 47.0126C85.8694 47.3274 85.6206 47.7048 85.4586 48.1203C85.2819 48.5817 85.1946 49.0718 85.2013 49.5649V52.4C85.1945 52.8927 85.2818 53.3822 85.4586 53.8432C85.6199 54.2591 85.8688 54.6366 86.1889 54.9508C86.5112 55.2629 86.8955 55.5058 87.3178 55.6643C87.7825 55.839 88.2766 55.9255 88.7739 55.9193H92.4507C92.9475 55.9256 93.4411 55.8391 93.9053 55.6643C94.3308 55.5046 94.7179 55.2591 95.0416 54.9435C95.3622 54.6296 95.6112 54.252 95.7719 53.8358C95.9494 53.3751 96.0368 52.8854 96.0292 52.3927L96.0277 49.562Z"/>
        <path d="M118.988 58.3997H116.235V49.5619L111.392 57.9543C111.279 58.1621 111.106 58.3316 110.894 58.4408C110.684 58.5494 110.45 58.6062 110.213 58.6063C109.979 58.6073 109.75 58.5504 109.545 58.4408C109.337 58.3291 109.168 58.1599 109.057 57.9543L104.193 49.5619V58.3997H101.454V44.7079C101.45 44.4092 101.548 44.1179 101.732 43.8801C101.913 43.6414 102.17 43.4699 102.462 43.3937C102.75 43.325 103.053 43.345 103.329 43.4508C103.607 43.5542 103.839 43.7501 103.985 44.0046L110.213 54.6504L116.433 44.0017C116.585 43.7468 116.82 43.5497 117.099 43.442C117.383 43.331 117.696 43.313 117.991 43.3907C118.281 43.4697 118.535 43.6408 118.716 43.8772C118.903 44.1133 119.003 44.4053 119 44.705L118.988 58.3997Z"/>
    </g>
    <path  fill="#ED2D4A" d="M115.686 36.2892C114.811 36.2889 113.972 35.9463 113.354 35.3368L100.256 22.4171C99.6376 21.8076 98.7987 21.4651 97.9239 21.4648H97.8852C97.0113 21.4632 96.1739 21.1199 95.5569 20.5102C94.9399 19.9005 94.594 19.0745 94.5952 18.2136V18.0759C94.5952 17.2148 94.9425 16.389 95.5606 15.7801C96.1787 15.1712 97.017 14.8291 97.8912 14.8291H97.9299C98.3631 14.8293 98.7921 14.7453 99.1923 14.5819C99.5925 14.4184 99.956 14.1788 100.262 13.8768L113.354 0.952713C113.972 0.343211 114.811 0.000648176 115.686 0.000366211V0.000366211C118.644 0.000366211 120.103 3.54163 117.984 5.56793L107.293 15.824C106.977 16.1265 106.726 16.4883 106.555 16.8879C106.384 17.2875 106.296 17.7169 106.296 18.1506C106.296 18.5844 106.384 19.0138 106.555 19.4134C106.726 19.813 106.977 20.1747 107.293 20.4773L117.984 30.7231C120.103 32.7479 118.644 36.2892 115.686 36.2892Z"/>
</svg>