<svg xmlns="http://www.w3.org/2000/svg" viewBox="0 0 118 36">
<g fill="#203347">
	<path class="st0" d="M36.5,28.1c0,0.9-0.2,1.8-0.4,2.6c-0.3,1-0.8,1.9-1.5,2.7c-0.7,0.8-1.5,1.4-2.4,1.9c-1,0.5-2.3,0.8-3.8,0.8 H3.4c-0.5,0-0.9-0.1-1.3-0.3S1.3,35.3,1,35c-0.3-0.3-0.5-0.7-0.7-1.1C0.1,33.6,0,33.1,0,32.7V3.3C0,2.9,0.1,2.4,0.3,2 C0.4,1.6,0.7,1.3,1,1s0.6-0.6,1-0.7C2.5,0.1,2.9,0,3.4,0h22.1c0.9,0,1.8,0.2,2.6,0.4c1,0.3,1.9,0.8,2.6,1.4c0.8,0.7,1.5,1.5,2,2.5 s0.8,2.3,0.8,3.7v1.2c0,1.3-0.2,2.5-0.6,3.8c-0.4,1.4-1.1,2.7-1.9,3.8c0.8,0.5,1.5,1,2.1,1.6c0.7,0.7,1.3,1.4,1.7,2.2 c0.5,0.9,0.9,1.9,1.2,2.9c0.3,1.1,0.6,2.2,0.6,3.4V28.1z M29.8,26.9c0-0.8-0.1-1.6-0.4-2.3c-0.3-0.7-0.7-1.3-1.2-1.8 s-1.1-0.9-1.8-1.1c-0.8-0.3-1.6-0.4-2.4-0.4H9.3v-6.5h11.9c0.8,0,1.6-0.1,2.4-0.4c0.7-0.2,1.3-0.6,1.8-1.1s0.9-1.1,1.1-1.8 c0.3-0.7,0.4-1.5,0.4-2.3V7.9c0-0.9-0.5-1.4-1.4-1.4H6.6v22.9h21.8c0.1,0,0.3,0,0.4,0c0.2,0,0.4-0.1,0.5-0.2 c0.1-0.1,0.3-0.2,0.3-0.4c0.1-0.3,0.2-0.5,0.1-0.8L29.8,26.9z"/>
	<path class="st0" d="M78.7,28.1c0,0.9-0.2,1.8-0.4,2.6c-0.3,1-0.8,1.9-1.5,2.7c-0.7,0.8-1.5,1.4-2.4,1.9c-1,0.5-2.3,0.8-3.8,0.8 H45.5c-0.5,0-0.9-0.1-1.3-0.3c-0.4-0.2-0.8-0.4-1.1-0.7c-0.3-0.3-0.5-0.7-0.7-1.1c-0.2-0.4-0.3-0.9-0.3-1.3V3.3 c0-0.4,0.1-0.9,0.3-1.3s0.4-0.7,0.7-1s0.7-0.5,1.1-0.7C44.6,0.1,45.1,0,45.5,0h22.1c0.9,0,1.8,0.2,2.6,0.4c1,0.3,1.9,0.8,2.6,1.4 c0.8,0.7,1.5,1.5,2,2.5c0.5,1,0.8,2.3,0.8,3.7v1.2c0,1.3-0.2,2.5-0.6,3.8c-0.4,1.4-1.1,2.7-1.9,3.8c0.8,0.5,1.5,1,2.1,1.6 c0.7,0.7,1.3,1.4,1.7,2.2c0.5,0.9,0.9,1.9,1.2,2.9c0.3,1.1,0.4,2.3,0.4,3.5L78.7,28.1z M72.1,26.9c0-0.8-0.1-1.6-0.4-2.3 c-0.3-0.7-0.7-1.3-1.2-1.8c-0.5-0.5-1.1-0.9-1.8-1.1c-0.8-0.3-1.6-0.4-2.4-0.4H51.4v-6.5h11.9c0.8,0,1.6-0.1,2.4-0.4 c0.7-0.2,1.3-0.6,1.8-1.1c0.5-0.5,0.9-1.1,1.1-1.8C68.9,10.8,69,10,69,9.2V7.9c0-0.9-0.5-1.4-1.4-1.4H48.8v22.9h21.8 c0.1,0,0.3,0,0.4,0c0.2,0,0.4-0.1,0.5-0.2c0.1-0.1,0.3-0.2,0.3-0.4c0.1-0.3,0.2-0.5,0.1-0.8L72.1,26.9z"/>
	<path class="st0" d="M87.8,0L87.8,0c-1.8,0-3.3,1.5-3.3,3.3v29.4c0,1.8,1.5,3.3,3.3,3.3l0,0c1.8,0,3.3-1.5,3.3-3.3V3.3 C91.1,1.5,89.6,0,87.8,0z"/>
</g>
<path fill="#ED2D4A" d="M114.7,36c-0.9,0-1.7-0.3-2.3-1l-13-12.8c-0.6-0.6-1.5-1-2.3-1l0,0c-0.9,0-1.7-0.3-2.3-1c-0.6-0.6-1-1.4-1-2.3 v-0.1c0-0.9,0.3-1.7,1-2.3c0.7-0.6,1.5-1,2.3-1l0,0c0.4,0,0.9-0.1,1.3-0.2c0.4-0.2,0.8-0.4,1.1-0.7L112.4,1c0.6-0.6,1.5-1,2.3-1l0,0 c3,0,4.4,3.5,2.3,5.6l-10.6,10.2c-0.3,0.3-0.6,0.7-0.7,1.1c-0.2,0.4-0.3,0.8-0.3,1.3c0,0.4,0.1,0.9,0.3,1.3c0.2,0.4,0.4,0.8,0.7,1.1 l10.6,9.9C119.1,32.4,117.6,36,114.7,36z"/>
</svg>